{
    "asset" : {
        "generator" : "Khronos glTF Blender I/O v1.5.17",
        "version" : "2.0"
    },
    "scene" : 0,
    "scenes" : [
        {
            "name" : "Scene",
            "nodes" : [
                0
            ]
        }
    ],
    "nodes" : [
        {
            "mesh" : 0,
            "name" : "Text",
            "translation" : [
                0,
                0,
                -1
            ]
        }
    ],
    "meshes" : [
        {
            "name" : "Text",
            "primitives" : [
                {
                    "attributes" : {
                        "POSITION" : 0,
                        "NORMAL" : 1,
                        "TANGENT" : 2,
                        "TEXCOORD_0" : 3
                    },
                    "indices" : 4
                }
            ]
        }
    ],
    "accessors" : [
        {
            "bufferView" : 0,
            "componentType" : 5126,
            "count" : 36911,
            "max" : [
                6.276092052459717,
                1.7154617309570312,
                0.5432096719741821
            ],
            "min" : [
                -6.460982799530029,
                -1.7154618501663208,
                0.0432094931602478
            ],
            "type" : "VEC3"
        },
        {
            "bufferView" : 1,
            "componentType" : 5126,
            "count" : 36911,
            "type" : "VEC3"
        },
        {
            "bufferView" : 2,
            "componentType" : 5126,
            "count" : 36911,
            "type" : "VEC4"
        },
        {
            "bufferView" : 3,
            "componentType" : 5126,
            "count" : 36911,
            "type" : "VEC2"
        },
        {
            "bufferView" : 4,
            "componentType" : 5123,
            "count" : 161604,
            "type" : "SCALAR"
        }
    ],
    "bufferViews" : [
        {
            "buffer" : 0,
            "byteLength" : 442932,
            "byteOffset" : 0
        },
        {
            "buffer" : 0,
            "byteLength" : 442932,
            "byteOffset" : 442932
        },
        {
            "buffer" : 0,
            "byteLength" : 590576,
            "byteOffset" : 885864
        },
        {
            "buffer" : 0,
            "byteLength" : 295288,
            "byteOffset" : 1476440
        },
        {
            "buffer" : 0,
            "byteLength" : 323208,
            "byteOffset" : 1771728
        }
    ],
    "buffers" : [
        {
            "byteLength" : 2094936,
            "uri" : "data:application/octet-stream;base64,"
        }
    ]
}
