# Blender v2.92.0 OBJ File: 'Soma-Cube-forExport.blend'
# www.blender.org
o B_Cube.005
v 1.000000 -0.200000 -0.800000
v 1.000000 -0.200000 0.200000
v 0.000000 -0.200000 0.200000
v 0.000000 -0.200000 -0.800000
v 1.000000 0.800000 -0.800000
v 1.000000 0.800000 0.200000
v 0.000000 0.800000 0.200000
v 0.000000 0.800000 -0.800000
v 1.000000 1.800000 -0.800000
v 1.000000 1.800000 0.200000
v 0.000000 1.800000 -0.800000
v 0.000000 1.800000 0.200000
v 2.000000 -0.200000 -0.800000
v 2.000000 -0.200000 0.200000
v 2.000000 0.800000 -0.799999
v 2.000000 0.800000 0.200001
v 1.000000 -0.200000 -1.800000
v 1.000001 0.800000 -1.800000
v 2.000000 -0.200000 -1.800000
v 2.000000 0.800000 -1.799999
vn 0.0000 -1.0000 -0.0000
vn 1.0000 0.0000 0.0000
vn 0.0000 1.0000 0.0000
vn -0.0000 -0.0000 1.0000
vn -1.0000 -0.0000 -0.0000
vn 0.0000 0.0000 -1.0000
s off
f 1//1 2//1 3//1 4//1
f 6//2 5//2 9//2 10//2
f 5//3 6//3 16//3 15//3
f 2//4 6//4 7//4 3//4
f 3//5 7//5 8//5 4//5
f 5//6 1//6 4//6 8//6
f 9//3 11//3 12//3 10//3
f 8//5 7//5 12//5 11//5
f 5//6 8//6 11//6 9//6
f 7//4 6//4 10//4 12//4
f 13//2 15//2 16//2 14//2
f 6//4 2//4 14//4 16//4
f 1//5 5//5 18//5 17//5
f 2//1 1//1 13//1 14//1
f 17//6 18//6 20//6 19//6
f 13//1 1//1 17//1 19//1
f 5//3 15//3 20//3 18//3
f 15//2 13//2 19//2 20//2
