# Blender v2.92.0 OBJ File: 'Soma-Cube-forExport.blend'
# www.blender.org
o L_Cube.001
v 5.600000 -1.000000 -1.000000
v 5.600000 -1.000000 1.000000
v 1.600000 -1.000000 1.000000
v 1.600001 -1.000000 -1.000000
v 5.600001 1.000000 -0.999999
v 5.599998 1.000000 1.000001
v 1.599999 1.000000 1.000000
v 1.600000 1.000000 -1.000000
v -2.400000 -1.000000 0.999999
v -2.399999 -1.000000 -1.000001
v -2.400001 1.000000 0.999999
v -2.400000 1.000000 -1.000000
v -6.400000 -1.000001 0.999999
v -6.399999 -1.000001 -1.000001
v -6.400001 0.999999 0.999999
v -6.400000 0.999999 -1.000001
v 5.600001 -1.000000 -3.000000
v 1.600002 -1.000000 -3.000000
v 5.600002 1.000000 -3.000000
v 1.600001 1.000000 -3.000000
vn 0.0000 -1.0000 0.0000
vn 0.0000 1.0000 0.0000
vn 1.0000 0.0000 0.0000
vn -0.0000 -0.0000 1.0000
vn 0.0000 0.0000 -1.0000
vn -1.0000 -0.0000 -0.0000
s off
f 1//1 2//1 3//1 4//1
f 5//2 8//2 7//2 6//2
f 1//3 5//3 6//3 2//3
f 2//4 6//4 7//4 3//4
f 3//4 7//4 11//4 9//4
f 5//3 1//3 17//3 19//3
f 11//2 12//2 16//2 15//2
f 7//2 8//2 12//2 11//2
f 8//5 4//5 10//5 12//5
f 4//1 3//1 9//1 10//1
f 13//6 15//6 16//6 14//6
f 9//4 11//4 15//4 13//4
f 12//5 10//5 14//5 16//5
f 10//1 9//1 13//1 14//1
f 19//5 17//5 18//5 20//5
f 8//2 5//2 19//2 20//2
f 4//6 8//6 20//6 18//6
f 1//1 4//1 18//1 17//1
