# Blender v2.92.0 OBJ File: 'Soma-Cube-forExport.blend'
# www.blender.org
o T_Cube.002
v 1.000000 -2.000000 -1.000000
v 1.000000 -2.000000 1.000000
v -1.000000 -2.000000 1.000000
v -1.000000 -2.000000 -1.000000
v 1.000000 2.000000 -0.999999
v 0.999999 2.000000 1.000001
v -1.000000 2.000000 1.000000
v -1.000000 2.000000 -1.000000
v 3.000000 -2.000000 -0.999999
v 3.000000 -2.000000 1.000001
v 3.000000 2.000000 -0.999999
v 2.999999 2.000000 1.000001
v 0.999999 -2.000000 3.000000
v -1.000001 -2.000000 3.000000
v 0.999999 2.000000 3.000000
v -1.000001 2.000000 3.000000
v -3.000000 -2.000000 0.999999
v -3.000000 -2.000000 -1.000001
v -3.000000 2.000000 0.999999
v -3.000000 2.000000 -1.000000
vn 0.0000 -1.0000 0.0000
vn 0.0000 1.0000 0.0000
vn -0.0000 -0.0000 1.0000
vn -1.0000 -0.0000 -0.0000
vn 0.0000 0.0000 -1.0000
vn 1.0000 0.0000 0.0000
s off
f 1//1 2//1 3//1 4//1
f 5//2 8//2 7//2 6//2
f 6//3 2//3 10//3 12//3
f 7//4 3//4 14//4 16//4
f 3//3 7//3 19//3 17//3
f 5//5 1//5 4//5 8//5
f 9//6 11//6 12//6 10//6
f 1//5 5//5 11//5 9//5
f 2//1 1//1 9//1 10//1
f 5//2 6//2 12//2 11//2
f 13//3 15//3 16//3 14//3
f 2//6 6//6 15//6 13//6
f 3//1 2//1 13//1 14//1
f 6//2 7//2 16//2 15//2
f 17//4 19//4 20//4 18//4
f 7//2 8//2 20//2 19//2
f 8//5 4//5 18//5 20//5
f 4//1 3//1 17//1 18//1
