# Blender v2.92.0 OBJ File: 'Soma-Cube-forExport.blend'
# www.blender.org
o Z_Cube.003
v 2.000000 -2.000000 -3.000000
v 2.000000 -2.000000 1.000000
v -2.000000 -2.000000 1.000000
v -1.999999 -2.000000 -3.000000
v 2.000001 2.000000 -2.999999
v 1.999999 2.000000 1.000001
v -2.000000 2.000000 0.999999
v -2.000000 2.000000 -3.000000
v 6.000000 -2.000000 -2.999999
v 6.000000 -2.000000 1.000001
v 6.000001 2.000000 -2.999998
v 5.999999 2.000000 1.000002
v 1.999999 -2.000000 5.000000
v -2.000001 -2.000000 5.000000
v 1.999998 2.000000 5.000001
v -2.000001 2.000000 4.999999
v -6.000000 -2.000000 0.999999
v -6.000001 2.000000 0.999998
v -6.000001 -2.000001 4.999998
v -6.000002 1.999999 4.999998
vn 0.0000 -1.0000 0.0000
vn 0.0000 1.0000 0.0000
vn 0.0000 -0.0000 -1.0000
vn -1.0000 -0.0000 -0.0000
vn 1.0000 -0.0000 0.0000
vn -0.0000 -0.0000 1.0000
s off
f 1//1 2//1 3//1 4//1
f 5//2 8//2 7//2 6//2
f 5//2 6//2 12//2 11//2
f 7//3 3//3 17//3 18//3
f 3//4 7//4 8//4 4//4
f 5//3 1//3 4//3 8//3
f 9//5 11//5 12//5 10//5
f 6//6 2//6 10//6 12//6
f 1//3 5//3 11//3 9//3
f 2//1 1//1 9//1 10//1
f 13//6 15//6 16//6 14//6
f 2//5 6//5 15//5 13//5
f 3//1 2//1 13//1 14//1
f 6//2 7//2 16//2 15//2
f 18//4 17//4 19//4 20//4
f 3//1 14//1 19//1 17//1
f 14//6 16//6 20//6 19//6
f 16//2 7//2 18//2 20//2
