{
    "asset" : {
        "generator" : "Khronos glTF Blender I/O v1.5.17",
        "version" : "2.0"
    },
    "scene" : 0,
    "scenes" : [
        {
            "name" : "Scene",
            "nodes" : [
                0
            ]
        }
    ],
    "nodes" : [
        {
            "mesh" : 0,
            "name" : "Suzanne"
        }
    ],
    "meshes" : [
        {
            "name" : "Suzanne",
            "primitives" : [
                {
                    "attributes" : {
                        "POSITION" : 0,
                        "NORMAL" : 1,
                        "TANGENT" : 2,
                        "TEXCOORD_0" : 3
                    },
                    "indices" : 4
                }
            ]
        }
    ],
    "accessors" : [
        {
            "bufferView" : 0,
            "componentType" : 5126,
            "count" : 1155,
            "max" : [
                7,
                1,
                1.0000003576278687
            ],
            "min" : [
                -6.3671875,
                -1,
                -1
            ],
            "type" : "VEC3"
        },
        {
            "bufferView" : 1,
            "componentType" : 5126,
            "count" : 1155,
            "type" : "VEC3"
        },
        {
            "bufferView" : 2,
            "componentType" : 5126,
            "count" : 1155,
            "type" : "VEC4"
        },
        {
            "bufferView" : 3,
            "componentType" : 5126,
            "count" : 1155,
            "type" : "VEC2"
        },
        {
            "bufferView" : 4,
            "componentType" : 5123,
            "count" : 5838,
            "type" : "SCALAR"
        }
    ],
    "bufferViews" : [
        {
            "buffer" : 0,
            "byteLength" : 13860,
            "byteOffset" : 0
        },
        {
            "buffer" : 0,
            "byteLength" : 13860,
            "byteOffset" : 13860
        },
        {
            "buffer" : 0,
            "byteLength" : 18480,
            "byteOffset" : 27720
        },
        {
            "buffer" : 0,
            "byteLength" : 9240,
            "byteOffset" : 46200
        },
        {
            "buffer" : 0,
            "byteLength" : 11676,
            "byteOffset" : 55440
        }
    ],
    "buffers" : [
        {
            "byteLength" : 67116,
            "uri" : "data:application/octet-stream;base64,"
        }
    ]
}
